<svg viewBox="0 0 400 400" xmlns="http://www.w3.org/2000/svg">
  <rect x="0" y="0" width="100" height="100" fill="#ECECEC" />
  <line x1="0" y1="90" x2="100" y2="90" stroke="#000" stroke-width="1" />
  <rect x="0" y="0" width="400" height="400" fill="#fff" />
  <line x1="0" y1="399.5" x2="400" y2="399.5" stroke="#000" stroke-width="1" />
  
  <line x1="12" y1="300" x2="12" y2="399.5" stroke="#000" stroke-width="1" />
  <line x1="0" y1="280" x2="25" y2="320" stroke="#000" stroke-width="1" />
  
  <line x1="56" y1="300" x2="56" y2="399.5" stroke="#000" stroke-width="1" />
  <line x1="45" y1="280" x2="70" y2="320" stroke="#000" stroke-width="1" />
  
  <line x1="104" y1="300" x2="104" y2="399.5" stroke="#000" stroke-width="1" />
  <line x1="90" y1="280" x2="120" y2="320" stroke="#000" stroke-width="1" />
  
  <line x1="152" y1="300" x2="152" y2="399.5" stroke="#000" stroke-width="1" />
  <line x1="138" y1="280" x2="170" y2="320" stroke="#000" stroke-width="1" />
  
  <line x1="200" y1="300" x2="200" y2="399.5" stroke="#000" stroke-width="1" />
  <line x1="190" y1="280" x2="215" y2="320" stroke="#000" stroke-width="1" />
  
  <line x1="248" y1="300" x2="248" y2="399.5" stroke="#000" stroke-width="1" />
  <line x1="238" y1="280" x2="260" y2="320" stroke="#000" stroke-width="1" />
  
  <line x1="296" y1="300" x2="296" y2="399.5" stroke="#000" stroke-width="1" />
  <line x1="280" y1="280" x2="316" y2="320" stroke="#000" stroke-width="1" />
  
  <line x1="344" y1="300" x2="344" y2="399.5" stroke="#000" stroke-width="1" />
  <line x1="330" y1="280" x2="355" y2="320" stroke="#000" stroke-width="1" />
  
</svg>
