<?xml version="1.0" standalone="no"?>
<!DOCTYPE svg PUBLIC "-//W3C//DTD SVG 20010904//EN"
 "http://www.w3.org/TR/2001/REC-SVG-20010904/DTD/svg10.dtd">
<svg version="1.0" xmlns="http://www.w3.org/2000/svg"
 width="1280.000000pt" height="1177.000000pt" viewBox="0 0 1280.000000 1177.000000"
 preserveAspectRatio="xMidYMid meet">
<metadata>
Created by potrace 1.15, written by Peter Selinger 2001-2017
</metadata>
<g transform="translate(0.000000,1177.000000) scale(0.100000,-0.100000)"
fill="#000000" stroke="none">
<path d="M10595 11759 c-400 -30 -752 -95 -1023 -190 -64 -22 -174 -60 -243
-84 -298 -104 -717 -279 -807 -338 -70 -45 -185 -111 -337 -193 -109 -58 -248
-141 -303 -182 -48 -34 -121 -57 -156 -48 -31 8 -41 39 -31 102 5 38 17 57 76
119 57 60 73 84 85 127 28 107 12 164 -44 152 -199 -43 -397 -157 -562 -323
-195 -196 -300 -331 -447 -573 -29 -48 -79 -120 -111 -160 -32 -40 -78 -107
-102 -148 -24 -41 -75 -124 -113 -185 -39 -60 -110 -193 -158 -295 -160 -335
-307 -608 -424 -785 -40 -60 -103 -159 -140 -220 -94 -154 -148 -228 -230
-315 -38 -42 -101 -116 -139 -165 -108 -139 -166 -204 -230 -258 l-60 -49 -72
6 -73 7 -48 -52 c-73 -78 -121 -112 -193 -135 -67 -22 -83 -37 -95 -97 -4 -20
-20 -37 -56 -59 -32 -21 -51 -40 -55 -57 -3 -14 -8 -33 -10 -42 -2 -8 -29 -26
-59 -38 -37 -15 -82 -48 -133 -96 -105 -99 -216 -155 -305 -155 -83 0 -164
-25 -196 -59 -60 -64 -98 -120 -132 -192 -35 -73 -41 -80 -145 -158 -60 -44
-145 -99 -189 -120 l-80 -40 -120 14 c-78 9 -167 29 -255 55 -245 74 -477 103
-940 115 -204 6 -232 4 -302 -14 -116 -30 -146 -48 -370 -215 -26 -20 -91 -89
-144 -153 -53 -65 -139 -158 -190 -208 -84 -81 -95 -96 -110 -149 -34 -120 6
-259 99 -342 27 -24 53 -44 59 -44 5 0 26 16 46 35 75 71 193 115 306 115 89
0 380 -48 470 -77 93 -31 189 -91 209 -130 22 -42 118 -193 149 -233 14 -19
44 -74 67 -123 26 -56 62 -114 103 -161 176 -205 336 -481 539 -925 l33 -74
-61 -58 c-111 -104 -209 -183 -274 -222 -40 -23 -150 -66 -294 -113 -297 -98
-288 -98 -515 10 -186 87 -209 106 -343 284 -113 148 -124 158 -192 171 -33 7
-73 14 -89 18 -16 3 -49 25 -75 48 -194 183 -266 228 -347 223 -37 -3 -44 -6
-29 -12 78 -31 97 -42 125 -71 27 -28 31 -39 26 -62 -16 -65 -17 -80 -4 -118
16 -47 56 -77 136 -100 31 -9 73 -25 93 -36 l37 -18 -1 -78 c-2 -98 15 -134
81 -167 59 -30 93 -62 132 -123 33 -52 100 -246 100 -290 0 -16 -32 -92 -71
-171 -57 -115 -76 -143 -96 -148 -43 -11 -100 14 -156 69 -61 59 -54 33 -87
334 -19 172 -39 284 -58 334 -26 66 -120 138 -181 139 -22 0 -22 -2 10 -23 40
-27 74 -86 84 -144 l7 -43 -45 -19 c-77 -33 -84 -72 -37 -219 58 -181 28 -225
-91 -134 -35 27 -109 78 -164 114 -75 50 -135 102 -238 208 -144 147 -191 180
-257 179 -32 -1 -33 -1 -10 -8 47 -15 87 -40 119 -76 36 -42 38 -54 11 -88
-44 -55 -10 -109 118 -185 39 -23 88 -62 109 -87 21 -24 63 -63 93 -87 31 -24
86 -70 123 -102 57 -51 67 -65 67 -92 0 -47 -19 -60 -90 -62 -47 -1 -79 5
-138 28 -46 18 -104 31 -142 34 -36 2 -87 9 -113 15 -50 12 -117 6 -117 -10 0
-5 16 -9 35 -9 55 0 146 -36 330 -130 115 -59 191 -91 235 -100 101 -20 118
-46 100 -153 -17 -108 9 -154 103 -181 50 -15 59 -21 73 -54 20 -47 13 -114
-15 -153 -12 -16 -19 -29 -16 -29 14 0 62 30 79 49 18 20 19 27 8 99 -15 96
-15 205 -1 271 9 45 14 51 47 62 20 7 75 13 122 13 142 0 230 -54 246 -153 9
-57 29 -66 107 -51 99 19 127 -9 147 -150 15 -103 29 -132 77 -165 42 -28 82
-31 177 -14 77 14 118 -2 132 -52 9 -31 13 -33 79 -45 86 -15 129 -33 189 -79
l47 -36 21 26 c28 36 90 65 137 65 38 0 42 3 62 42 58 116 133 163 200 127 17
-9 38 7 160 122 l141 131 41 -6 c23 -3 56 -9 74 -12 28 -5 37 0 90 52 32 33
97 85 145 117 l87 58 61 -32 c80 -42 130 -89 183 -169 48 -73 115 -124 186
-142 36 -9 64 -29 133 -95 95 -89 141 -117 285 -169 102 -37 169 -68 195 -91
16 -14 20 -13 46 15 16 17 42 34 58 38 16 4 40 15 54 26 23 16 29 17 80 3 30
-8 66 -15 80 -15 36 0 67 -25 91 -72 11 -22 39 -61 62 -86 39 -42 302 -268
351 -301 11 -8 52 -35 90 -60 139 -90 227 -187 438 -483 102 -142 137 -184
208 -242 47 -39 108 -93 135 -121 49 -48 95 -127 95 -162 0 -28 76 -174 123
-236 24 -31 85 -102 136 -157 98 -106 111 -113 178 -90 21 8 38 8 58 0 22 -8
30 -8 37 2 11 18 10 117 -3 200 -13 86 -4 103 38 70 16 -12 64 -48 108 -79 44
-32 119 -91 168 -131 73 -61 90 -71 106 -62 11 5 33 10 50 10 16 0 32 4 35 9
3 4 -8 34 -25 64 -22 42 -33 80 -42 146 -6 50 -8 93 -4 97 3 3 22 3 41 0 24
-5 59 -29 112 -77 69 -63 214 -158 334 -219 l43 -22 -7 29 c-4 15 -27 71 -52
124 -24 52 -44 104 -44 116 0 11 -18 47 -40 79 -23 33 -40 71 -40 87 0 23 4
27 28 27 15 0 45 -12 67 -25 48 -30 62 -31 70 -6 8 25 34 18 103 -26 76 -48
86 -44 50 22 -16 30 -33 81 -38 113 -4 31 -11 65 -15 74 -6 15 -2 18 22 18 16
0 38 -7 49 -15 38 -29 36 -14 -5 30 -43 47 -46 52 -33 72 6 10 26 10 92 1 72
-9 91 -8 122 5 32 13 39 23 52 68 9 29 16 78 16 109 0 54 -1 57 -52 106 -64
60 -142 126 -263 219 -190 147 -364 321 -473 473 -60 84 -52 92 70 68 214 -41
382 -121 525 -250 l49 -45 74 10 c41 5 78 13 83 18 6 6 5 53 0 119 -9 102 -12
113 -41 150 -18 22 -39 57 -47 76 -18 43 -53 66 -135 91 -109 33 -141 91 -78
143 90 75 87 69 81 168 -3 49 -11 103 -18 121 -25 61 -130 120 -395 221 -85
33 -194 78 -243 101 -48 23 -141 54 -206 70 -182 45 -317 86 -527 161 -106 37
-206 71 -223 75 -40 9 -53 27 -49 72 3 37 4 38 54 48 28 5 59 16 68 24 10 8
29 11 53 8 149 -22 146 -22 138 4 -15 53 -57 122 -144 237 -87 115 -98 125
-199 189 -66 42 -146 104 -208 164 -56 53 -111 102 -123 108 -12 7 -31 33 -43
59 -27 57 -77 108 -183 188 -62 46 -81 66 -83 87 -4 30 21 77 40 77 7 0 50
-40 97 -89 78 -81 91 -91 146 -105 138 -37 199 -86 311 -252 65 -95 97 -119
267 -199 109 -52 301 -117 331 -113 18 3 53 54 68 99 2 5 26 11 53 15 94 10
90 7 149 117 30 56 60 121 67 145 17 58 37 59 115 5 50 -33 52 -34 86 -20 19
8 61 44 93 81 50 57 63 66 92 66 85 0 167 76 244 225 l54 103 47 5 c26 3 60
13 76 21 61 32 130 119 187 237 24 51 50 86 89 120 41 37 65 71 100 142 39 79
52 95 79 105 79 29 142 108 181 229 11 34 28 61 47 75 111 84 153 148 185 280
18 73 27 80 92 71 33 -4 44 -1 76 27 66 58 83 106 96 275 14 185 15 185 64
185 90 1 176 71 216 176 17 47 21 75 18 134 -5 92 -26 139 -92 202 -56 53 -56
71 1 85 22 5 39 15 41 25 2 10 -27 49 -71 95 -87 91 -127 147 -127 178 0 21 2
21 78 13 113 -13 177 -33 273 -88 122 -70 168 -90 215 -90 54 0 85 25 114 92
60 139 27 304 -93 463 -36 48 -57 65 -100 83 -32 14 -59 33 -67 47 -7 13 -31
37 -52 52 -48 33 -78 69 -78 94 0 24 33 25 110 3 30 -8 93 -19 140 -24 53 -5
130 -23 207 -49 235 -79 306 -48 304 134 l0 82 79 7 c116 9 203 39 255 88 53
48 65 81 67 179 1 65 -3 81 -32 139 -44 86 -54 129 -32 137 149 52 178 68 238
129 51 52 64 72 74 116 22 101 39 136 78 160 56 34 119 96 164 160 23 32 41
58 42 58 1 0 33 11 72 24 73 25 167 39 389 56 487 40 534 47 650 105 172 86
175 99 37 156 -124 51 -236 87 -492 154 -338 90 -384 104 -397 122 -19 25 -16
42 10 47 12 3 139 7 282 10 264 4 418 18 613 56 135 27 201 52 253 98 l42 38
-79 36 c-242 110 -539 182 -1032 248 -123 16 -227 32 -232 35 -18 11 -10 35
13 39 12 3 72 8 132 11 247 13 588 59 875 116 134 27 167 38 245 79 130 69
215 120 215 129 0 19 -153 64 -290 86 -378 62 -722 77 -1545 69 -674 -7 -678
-7 -740 47 -33 30 -62 96 -47 110 14 13 142 29 353 44 118 9 230 20 249 26 19
5 94 14 167 19 74 5 161 18 200 29 39 11 117 22 183 26 63 3 135 11 160 17 25
6 68 10 97 9 29 -1 54 3 58 9 5 8 27 9 69 5 50 -6 64 -4 75 9 10 12 32 16 85
16 39 0 100 7 136 15 84 20 229 92 305 152 l60 47 -115 28 c-248 60 -364 72
-725 72 -333 1 -380 -2 -853 -49 -263 -27 -318 -30 -326 -16 -13 21 41 42 199
76 205 44 348 90 464 150 104 54 249 165 229 176 -47 26 -412 36 -653 18z
m-8486 -8511 c115 -42 106 -81 -40 -180 -130 -88 -299 -153 -456 -173 -51 -7
-52 -6 -59 20 -19 77 23 248 75 304 23 25 37 30 97 35 38 4 89 11 114 16 73
15 197 5 269 -22z"/>
</g>
</svg>
